<svg width="30" height="30" viewBox="0 0 30 30" fill="none" xmlns="http://www.w3.org/2000/svg">
<path d="M0 15V30H15H30V15V0H15H0V15ZM17.44 2.46C20.07 2.96 22.41 4.2 24.3 6.1C26.82 8.62 28.1 11.75 28.1 15.35C28.1 18.99 26.75 22.18 24.11 24.73C22.99 25.82 21.67 26.72 20.36 27.29C19.12 27.83 18.91 27.87 18.57 27.6L18.3 27.39V25.11C18.3 22.66 18.23 22.16 17.76 21.47L17.52 21.12L18.17 21C18.53 20.94 19.17 20.78 19.59 20.65C22.16 19.84 23.51 17.64 23.38 14.5C23.32 13.25 23.12 12.6 22.53 11.71C22.13 11.12 22.11 11.05 22.2 10.71C22.42 9.92 22.23 7.99 21.91 7.67C21.65 7.41 19.93 7.98 18.8 8.7L18.35 8.99L17.7 8.82C16.78 8.59 13.32 8.59 12.43 8.82L11.8 8.98L11.03 8.54C10.02 7.96 9.29 7.7 8.66 7.67L8.16 7.65L7.99 8.25C7.79 8.96 7.75 10.03 7.91 10.66C8.02 11.09 8.01 11.13 7.73 11.53C6.92 12.66 6.65 13.66 6.74 15.2C6.92 18.68 8.58 20.44 12.22 21.05L12.6 21.11L12.33 21.51C12.19 21.73 12.01 22.12 11.95 22.38C11.84 22.82 11.8 22.86 11.34 23.02C10.45 23.33 9.5 23.21 8.81 22.69C8.64 22.57 8.32 22.21 8.1 21.89C7.26 20.69 6.14 20.1 5.54 20.54C5.36 20.68 5.39 20.72 6.11 21.42C6.67 21.96 6.96 22.33 7.21 22.85C7.69 23.85 7.95 24.16 8.58 24.47C9.12 24.73 9.23 24.75 10.48 24.75H11.81L11.78 26.09C11.75 27.42 11.75 27.43 11.48 27.63C11.23 27.81 11.17 27.82 10.78 27.71C9.27 27.26 7.11 25.91 5.75 24.55C3.89 22.69 2.65 20.35 2.13 17.7C1.88 16.43 1.9 14.05 2.19 12.73C3.38 7.12 7.95 2.94 13.6 2.31C14.64 2.19 16.38 2.26 17.44 2.46Z" fill="white"/>
</svg>
