<svg width="30" height="30" viewBox="0 0 30 30" fill="none" xmlns="http://www.w3.org/2000/svg">
<path d="M1.53633 0.286261C0.98978 0.629772 0.309931 1.75573 0.149967 2.63359C-0.0499889 3.62595 -0.0499889 26.374 0.149967 27.3664C0.323261 28.2634 0.98978 29.3893 1.56299 29.7137C2.20284 30.0954 27.7972 30.0954 28.437 29.7137C29.0102 29.3893 29.6767 28.2634 29.85 27.3664C30.05 26.374 30.05 3.62595 29.85 2.63359C29.6767 1.73664 29.0102 0.610687 28.437 0.286261C27.8105 -0.0954189 2.13619 -0.0954189 1.53633 0.286261ZM9.00133 10.8969L15 19.4847L21.0253 10.8779C26.7041 2.72901 27.064 2.27099 27.4239 2.3855C27.8771 2.53817 28.2637 3.14886 28.2637 3.72137C28.2637 4.21756 16.8396 20.6107 16.1331 21.1069C15.5465 21.5458 14.4535 21.5458 13.8669 21.1069C13.2404 20.6679 1.73628 4.21756 1.73628 3.77863C1.73628 2.99618 2.20284 2.36641 2.80271 2.32825C2.90935 2.30916 5.6954 6.16412 9.00133 10.8969ZM24.3979 2.44275C24.3979 2.67176 15.16 15.8588 15 15.8588C14.8534 15.8588 5.60209 2.67176 5.60209 2.46183C5.60209 2.36641 9.82782 2.30916 15 2.30916C20.1722 2.30916 24.3979 2.36641 24.3979 2.44275ZM3.46923 18.9886V27.7481L2.8427 27.6336C1.66963 27.4427 1.73628 28.0344 1.73628 17.2328V7.76718L2.60276 8.98855L3.46923 10.2099V18.9886ZM28.2637 17.271C28.2637 28.0916 28.3304 27.4809 27.0906 27.6527L26.3975 27.7481V19.084V10.4389L27.2906 9.14122C27.7838 8.41603 28.2104 7.84351 28.2237 7.84351C28.2504 7.84351 28.2637 12.0802 28.2637 17.271ZM12.9605 23.2443C14.2535 24.2176 15.7998 24.2176 17.0662 23.2443C17.3595 23.0153 18.3593 21.7557 19.2924 20.4389C20.2388 19.1221 21.8251 16.9084 22.8383 15.4962L24.6645 12.9198V20.3053V27.6908H14.9333H5.20218V20.229V12.7672L8.80138 17.8053C10.8409 20.6489 12.6405 23.0153 12.9605 23.2443Z" fill="white"/>
</svg>
