<svg width="30" height="30" viewBox="0 0 30 30" fill="none" xmlns="http://www.w3.org/2000/svg">
<path d="M4.91009 0.166155C2.59241 0.655807 0.654346 2.62441 0.164835 4.95276C-0.0549451 5.99202 -0.0549451 23.9993 0.164835 25.0385C0.654346 27.3968 2.6024 29.3455 4.96004 29.8351C5.999 30.055 24.001 30.055 25.04 29.8351C27.3976 29.3455 29.3457 27.3968 29.8352 25.0385C30.0549 23.9993 30.0549 5.99202 29.8352 4.95276C29.3457 2.59443 27.3976 0.645815 25.04 0.156162C24.031 -0.05369 5.8991 -0.05369 4.91009 0.166155ZM9.25574 4.35319C10.1848 4.8928 10.5445 6.10195 10.0749 7.13122C9.45554 8.48026 7.73726 8.83001 6.67832 7.82073C5.47952 6.68153 5.87912 4.72292 7.42757 4.13334C7.91708 3.94348 8.73626 4.04341 9.25574 4.35319ZM9.98502 16.8643L9.95505 23.7394H8.10689H6.25874L6.22877 16.9942C6.21878 13.2868 6.22877 10.189 6.25874 10.1191C6.28871 10.0292 6.76823 9.99918 8.15684 9.99918H10.005L9.98502 16.8643ZM16.2488 11.0784C16.2488 11.638 16.2687 12.0977 16.2987 12.0977C16.3287 12.0877 16.4685 11.9178 16.6184 11.698C17.2278 10.8086 18.6364 10.1291 20.045 10.0292C21.9331 9.89925 23.6214 10.8386 24.3906 12.4474C24.9501 13.6266 25 14.1462 24.97 19.1927L24.9401 23.7394H23.0919H21.2438L21.1938 19.6423C21.1439 15.5752 21.1439 15.5452 20.9041 15.0656C20.1149 13.4767 18.1269 13.2469 16.958 14.6059C16.3087 15.3654 16.2887 15.5253 16.2687 19.8622L16.2488 23.7394H14.4006H12.5524L12.5225 16.8643L12.5025 9.99918L14.3706 10.0192L16.2488 10.0491V11.0784Z" fill="white"/>
</svg>
