<svg width="25" height="11" viewBox="0 0 25 11" fill="none" xmlns="http://www.w3.org/2000/svg">
<path d="M14.8868 1.25895C14.6772 1.38587 14.2659 1.63549 13.9787 1.80896C13.6915 1.98242 12.7213 2.5832 11.8132 3.14167C10.9051 3.70015 10.0513 4.22477 9.91934 4.30516C9.7874 4.38554 9.22856 4.72824 8.67749 5.06671C7.56758 5.74787 7.44339 5.82403 6.6129 6.33596C6.29467 6.53481 6.01525 6.70404 5.99197 6.71674C5.96868 6.72943 5.68926 6.89866 5.37104 7.09751C5.05281 7.29213 4.7113 7.49944 4.61816 7.55868L4.45517 7.66022L3.64796 7.41483C3.20555 7.27944 2.69328 7.11867 2.49924 7.0552C2.3052 6.99174 1.95593 6.88174 1.71532 6.80559L1.2729 6.67443L0.636452 6.80559L0 6.93674L0.263895 7.09328C0.411366 7.1779 1.01677 7.55868 1.61442 7.94368C2.2043 8.32869 2.72433 8.66293 2.7709 8.68831C2.87956 8.75177 3.46168 9.11986 4.58711 9.83487C5.10714 10.1691 5.54179 10.4399 5.55732 10.4399C5.57284 10.4399 5.8833 10.1395 6.24034 9.77141C7.51324 8.481 9.41484 6.81828 12.2168 4.54631C13.2646 3.69591 14.5453 2.68474 14.9877 2.35051L15.3137 2.10935L15.2904 1.5678L15.2671 1.02625L14.8868 1.25895Z" fill="#0361E6"/>
<path d="M23.6769 0.514312C23.4596 0.649698 23.219 0.797778 23.1336 0.844317C22.9318 0.962781 20.0134 2.75243 19.2683 3.20936C18.9268 3.4209 18.3369 3.78475 17.9566 4.01745C17.5763 4.25015 17.1572 4.50823 17.0252 4.58861C16.6604 4.81708 15.4729 5.53632 15.4263 5.56171C15.403 5.5744 14.8985 5.88325 14.3086 6.24711C13.7188 6.61519 13.2143 6.91558 13.191 6.91558C13.1677 6.91558 12.6942 6.77596 12.1354 6.6025C11.5766 6.42903 11.0643 6.27672 10.9944 6.2598C10.9091 6.24288 10.7693 6.32749 10.4744 6.59404C10.2493 6.79288 10.0708 6.97481 10.0708 7.0002C10.0708 7.03827 11.235 7.81252 11.4679 7.93098C11.4912 7.94367 12.1354 8.34984 12.896 8.83215C13.6644 9.31447 14.3086 9.69524 14.3397 9.67832C14.3707 9.6614 14.6579 9.37793 14.9839 9.05216C16.6216 7.3852 19.8815 4.62669 23.7623 1.61856L24.1271 1.3351L24.1038 0.80201L24.0805 0.264691L23.6769 0.514312Z" fill="#0361E6"/>
</svg>
